<svg xmlns="http://www.w3.org/2000/svg" xmlns:xlink="http://www.w3.org/1999/xlink" width="174" zoomAndPan="magnify" viewBox="0 0 130.5 33.749998" height="45" preserveAspectRatio="xMidYMid meet" version="1.0"><defs><clipPath id="ade0b030f6"><path d="M 73 9 L 98 9 L 98 33.5 L 73 33.5 Z M 73 9 " clip-rule="nonzero"/></clipPath><clipPath id="30c774decb"><path d="M 26 29 L 32 29 L 32 33.5 L 26 33.5 Z M 26 29 " clip-rule="nonzero"/></clipPath><clipPath id="e66e1a74a9"><path d="M 31 29 L 37 29 L 37 33.5 L 31 33.5 Z M 31 29 " clip-rule="nonzero"/></clipPath><clipPath id="455e7c5850"><path d="M 36 29 L 42 29 L 42 33.5 L 36 33.5 Z M 36 29 " clip-rule="nonzero"/></clipPath><clipPath id="ed46dffca3"><path d="M 42 29 L 48 29 L 48 33.5 L 42 33.5 Z M 42 29 " clip-rule="nonzero"/></clipPath><clipPath id="5845507432"><path d="M 48 29 L 54 29 L 54 33.5 L 48 33.5 Z M 48 29 " clip-rule="nonzero"/></clipPath><clipPath id="f2a740ca93"><path d="M 53 29 L 59 29 L 59 33.5 L 53 33.5 Z M 53 29 " clip-rule="nonzero"/></clipPath><clipPath id="b18f0c64ea"><path d="M 59 29 L 64 29 L 64 33.5 L 59 33.5 Z M 59 29 " clip-rule="nonzero"/></clipPath><clipPath id="61bade58b2"><path d="M 63 29 L 70 29 L 70 33.5 L 63 33.5 Z M 63 29 " clip-rule="nonzero"/></clipPath><clipPath id="1224cf1585"><path d="M 69 29 L 75 29 L 75 33.5 L 69 33.5 Z M 69 29 " clip-rule="nonzero"/></clipPath><clipPath id="97c92528f8"><path d="M 74 29 L 80 29 L 80 33.5 L 74 33.5 Z M 74 29 " clip-rule="nonzero"/></clipPath></defs><g clip-path="url(#ade0b030f6)"><path fill="#0068b5" d="M 97.394531 24.660156 C 97.394531 25.152344 97.355469 25.640625 97.269531 26.125 C 97.1875 26.609375 97.0625 27.082031 96.898438 27.546875 C 96.730469 28.007812 96.527344 28.457031 96.289062 28.882812 C 96.046875 29.3125 95.769531 29.714844 95.460938 30.097656 C 95.148438 30.476562 94.808594 30.828125 94.4375 31.152344 C 94.066406 31.472656 93.667969 31.761719 93.25 32.015625 C 92.828125 32.273438 92.390625 32.488281 91.929688 32.667969 C 91.472656 32.847656 91.003906 32.984375 90.523438 33.085938 L 80.101562 33.085938 C 79.164062 33.085938 79.003906 31.144531 80.101562 31.125 L 83.679688 31.125 C 80.460938 25.203125 83.988281 20.445312 88.777344 20.257812 C 89.488281 20.257812 89.425781 19.144531 88.792969 19.15625 C 84.164062 19.445312 81.769531 22 81.464844 26.078125 L 75.589844 26.078125 C 74.632812 26.015625 74.632812 24.214844 75.589844 24.0625 L 78.621094 24.0625 C 79.269531 21.894531 80.300781 20.136719 81.789062 18.875 C 81.894531 18.695312 81.871094 18.535156 81.714844 18.398438 C 81.558594 18.261719 81.398438 18.253906 81.234375 18.382812 L 79.871094 19.496094 L 73.648438 19.496094 C 73.328125 14.824219 75.359375 12.65625 79.3125 12.539062 C 79.40625 10.265625 80.625 9.460938 82.574219 9.597656 C 82.582031 15.371094 82.480469 16.128906 87.199219 16.222656 C 88.097656 16.242188 89.175781 16.238281 90.464844 16.238281 C 90.472656 16.238281 90.480469 16.238281 90.492188 16.242188 C 90.972656 16.339844 91.445312 16.476562 91.902344 16.652344 C 92.363281 16.832031 92.804688 17.046875 93.226562 17.300781 C 93.648438 17.554688 94.046875 17.84375 94.417969 18.164062 C 94.792969 18.488281 95.132812 18.839844 95.445312 19.21875 C 95.757812 19.601562 96.035156 20.003906 96.277344 20.433594 C 96.519531 20.863281 96.726562 21.308594 96.890625 21.769531 C 97.058594 22.234375 97.183594 22.710938 97.269531 23.195312 C 97.351562 23.679688 97.394531 24.167969 97.394531 24.660156 Z M 97.394531 24.660156 " fill-opacity="1" fill-rule="nonzero"/></g><path fill="#0068b5" d="M 101.132812 14.671875 C 103.378906 22.523438 100.8125 27.859375 94.96875 31.492188 C 99.789062 25.988281 98.800781 19.828125 92.847656 16.128906 C 92.308594 15.921875 91.796875 15.660156 91.3125 15.34375 C 90.832031 15.027344 90.386719 14.664062 89.980469 14.253906 C 89.574219 13.84375 89.214844 13.394531 88.902344 12.90625 C 88.59375 12.421875 88.335938 11.90625 88.132812 11.367188 C 87.929688 10.824219 87.789062 10.269531 87.703125 9.699219 C 87.621094 9.125 87.597656 8.554688 87.632812 7.976562 C 87.671875 7.402344 87.769531 6.835938 87.929688 6.277344 C 88.085938 5.722656 88.300781 5.191406 88.570312 4.679688 C 88.84375 4.171875 89.164062 3.695312 89.535156 3.253906 C 89.90625 2.8125 90.320312 2.414062 90.777344 2.058594 C 91.234375 1.707031 91.722656 1.402344 92.242188 1.152344 C 92.761719 0.902344 93.304688 0.710938 93.863281 0.574219 C 94.425781 0.4375 94.996094 0.363281 95.574219 0.347656 C 96.152344 0.335938 96.722656 0.382812 97.289062 0.488281 C 97.859375 0.59375 98.40625 0.761719 98.941406 0.984375 C 99.472656 1.207031 99.976562 1.484375 100.449219 1.8125 C 100.921875 2.144531 101.355469 2.519531 101.75 2.941406 C 102.144531 3.367188 102.488281 3.824219 102.785156 4.320312 C 103.082031 4.816406 103.324219 5.335938 103.507812 5.882812 C 103.695312 6.429688 103.820312 6.992188 103.886719 7.566406 C 103.957031 8.136719 103.960938 8.710938 103.90625 9.289062 C 103.851562 9.863281 103.738281 10.425781 103.5625 10.976562 C 103.386719 11.527344 103.15625 12.050781 102.871094 12.554688 C 102.585938 13.054688 102.25 13.519531 101.863281 13.953125 C 100.417969 11.074219 98.421875 9.011719 95.960938 7.539062 C 95.277344 7.21875 95.082031 8.0625 95.402344 8.304688 C 97.769531 9.449219 99.757812 11.75 101.132812 14.671875 Z M 101.132812 14.671875 " fill-opacity="1" fill-rule="nonzero"/><path fill="#0a002e" d="M 32.601562 19.363281 L 35.21875 19.363281 L 35.21875 26.066406 L 32.277344 26.066406 L 28.675781 21.96875 L 28.675781 26.0625 L 26.0625 26.0625 L 26.0625 19.363281 L 29.65625 19.363281 L 32.601562 22.914062 Z M 32.601562 19.363281 " fill-opacity="1" fill-rule="nonzero"/><path fill="#0a002e" d="M 36.742188 19.363281 L 39.019531 19.363281 L 39.019531 26.066406 L 36.742188 26.066406 Z M 36.742188 19.363281 " fill-opacity="1" fill-rule="nonzero"/><path fill="#0a002e" d="M 47.203125 19.367188 C 47.539062 19.367188 47.863281 19.429688 48.171875 19.558594 C 48.484375 19.6875 48.757812 19.871094 48.996094 20.109375 C 49.234375 20.347656 49.414062 20.621094 49.542969 20.933594 C 49.671875 21.242188 49.738281 21.566406 49.734375 21.902344 C 49.742188 22.402344 49.605469 22.859375 49.332031 23.273438 C 49.066406 23.683594 48.714844 23.988281 48.273438 24.191406 L 49.734375 26.070312 L 46.949219 26.070312 L 45.6875 24.4375 L 43.355469 24.4375 L 43.355469 26.070312 L 40.742188 26.070312 L 40.742188 19.367188 Z M 43.355469 21.328125 L 43.355469 22.46875 L 46.542969 22.46875 C 46.703125 22.46875 46.835938 22.414062 46.949219 22.304688 C 47.0625 22.191406 47.117188 22.058594 47.117188 21.902344 C 47.117188 21.742188 47.0625 21.605469 46.949219 21.496094 C 46.839844 21.382812 46.703125 21.328125 46.542969 21.328125 Z M 43.355469 21.328125 " fill-opacity="1" fill-rule="nonzero"/><path fill="#0a002e" d="M 54.476562 24.027344 L 56.519531 19.371094 L 59.460938 19.371094 L 56.027344 26.074219 L 52.917969 26.074219 L 49.484375 19.371094 L 52.425781 19.371094 Z M 54.476562 24.027344 " fill-opacity="1" fill-rule="nonzero"/><path fill="#0a002e" d="M 59.664062 19.363281 L 62.277344 19.363281 L 62.277344 26.066406 L 59.664062 26.066406 Z M 59.664062 19.363281 " fill-opacity="1" fill-rule="nonzero"/><path fill="#0a002e" d="M 69.699219 19.371094 L 72.96875 19.371094 L 69.453125 22.722656 L 71.335938 24.519531 L 72.96875 26.074219 L 69.699219 26.074219 L 67.820312 24.117188 L 65.9375 26.074219 L 62.667969 26.074219 L 66.183594 22.722656 L 62.667969 19.371094 L 65.9375 19.371094 L 67.820312 21.328125 Z M 69.699219 19.371094 " fill-opacity="1" fill-rule="nonzero"/><path fill="#0068b5" d="M 65.9375 19.371094 L 69.191406 22.730469 L 65.9375 26.074219 L 62.667969 26.074219 L 66.183594 22.722656 L 62.667969 19.371094 Z M 65.9375 19.371094 " fill-opacity="1" fill-rule="nonzero"/><g clip-path="url(#30c774decb)"><path fill="#0068b5" d="M 27.867188 33.148438 L 27.867188 30.503906 L 26.117188 30.503906 L 26.117188 29.28125 L 31.09375 29.28125 L 31.09375 30.503906 L 29.34375 30.503906 L 29.34375 33.148438 Z M 27.867188 33.148438 " fill-opacity="1" fill-rule="nonzero"/></g><g clip-path="url(#e66e1a74a9)"><path fill="#0068b5" d="M 31.585938 29.28125 L 36.007812 29.28125 L 36.007812 30.269531 L 33.058594 30.269531 L 33.058594 30.765625 L 36.007812 30.765625 L 36.007812 31.660156 L 33.058594 31.660156 L 33.058594 32.152344 L 36.007812 32.152344 L 36.007812 33.148438 L 31.585938 33.148438 Z M 31.585938 29.28125 " fill-opacity="1" fill-rule="nonzero"/></g><g clip-path="url(#455e7c5850)"><path fill="#0068b5" d="M 41.597656 31.488281 C 41.503906 32.765625 40.382812 33.148438 39.023438 33.148438 C 37.605469 33.148438 36.4375 32.734375 36.441406 31.300781 L 36.441406 31.023438 C 36.4375 29.59375 37.605469 29.183594 39.023438 29.179688 C 40.382812 29.179688 41.503906 29.5625 41.597656 30.835938 L 40.085938 30.835938 C 39.949219 30.464844 39.527344 30.378906 39.023438 30.378906 C 38.421875 30.386719 37.910156 30.496094 37.917969 31.117188 L 37.917969 31.210938 C 37.910156 31.824219 38.421875 31.9375 39.023438 31.945312 C 39.527344 31.945312 39.953125 31.851562 40.085938 31.480469 Z M 41.597656 31.488281 " fill-opacity="1" fill-rule="nonzero"/></g><g clip-path="url(#ed46dffca3)"><path fill="#0068b5" d="M 43.507812 31.824219 L 43.507812 33.148438 L 42.035156 33.148438 L 42.035156 29.273438 L 43.507812 29.273438 L 43.507812 30.597656 L 45.71875 30.597656 L 45.71875 29.273438 L 47.195312 29.273438 L 47.195312 33.148438 L 45.71875 33.148438 L 45.71875 31.824219 Z M 43.507812 31.824219 " fill-opacity="1" fill-rule="nonzero"/></g><g clip-path="url(#5845507432)"><path fill="#0a002e" d="M 51.742188 29.273438 L 53.214844 29.273438 L 53.214844 33.148438 L 51.558594 33.148438 L 49.527344 30.78125 L 49.527344 33.148438 L 48.054688 33.148438 L 48.054688 29.273438 L 50.082031 29.273438 L 51.742188 31.324219 Z M 51.742188 29.273438 " fill-opacity="1" fill-rule="nonzero"/></g><g clip-path="url(#f2a740ca93)"><path fill="#0a002e" d="M 58.898438 31.027344 L 58.898438 31.304688 C 58.902344 32.734375 57.742188 33.148438 56.320312 33.148438 C 54.898438 33.152344 53.734375 32.734375 53.738281 31.304688 L 53.738281 31.027344 C 53.734375 29.59375 54.898438 29.183594 56.320312 29.183594 C 57.742188 29.179688 58.898438 29.597656 58.898438 31.027344 Z M 57.425781 31.121094 C 57.433594 30.503906 56.921875 30.390625 56.320312 30.382812 C 55.714844 30.390625 55.207031 30.503906 55.210938 31.121094 L 55.210938 31.210938 C 55.203125 31.832031 55.714844 31.941406 56.320312 31.953125 C 56.921875 31.945312 57.433594 31.835938 57.425781 31.210938 Z M 57.425781 31.121094 " fill-opacity="1" fill-rule="nonzero"/></g><g clip-path="url(#b18f0c64ea)"><path fill="#0a002e" d="M 60.808594 29.273438 L 60.808594 31.917969 L 63.757812 31.917969 L 63.757812 33.148438 L 59.335938 33.148438 L 59.335938 29.273438 Z M 60.808594 29.273438 " fill-opacity="1" fill-rule="nonzero"/></g><g clip-path="url(#61bade58b2)"><path fill="#0a002e" d="M 69.03125 31.027344 L 69.03125 31.304688 C 69.035156 32.734375 67.871094 33.148438 66.453125 33.148438 C 65.03125 33.152344 63.863281 32.734375 63.871094 31.304688 L 63.871094 31.027344 C 63.863281 29.59375 65.027344 29.183594 66.453125 29.183594 C 67.875 29.179688 69.03125 29.597656 69.03125 31.027344 Z M 67.554688 31.121094 C 67.5625 30.503906 67.054688 30.390625 66.453125 30.382812 C 65.847656 30.390625 65.335938 30.503906 65.34375 31.121094 L 65.34375 31.210938 C 65.335938 31.832031 65.847656 31.941406 66.453125 31.953125 C 67.054688 31.945312 67.566406 31.835938 67.554688 31.210938 Z M 67.554688 31.121094 " fill-opacity="1" fill-rule="nonzero"/></g><g clip-path="url(#1224cf1585)"><path fill="#0a002e" d="M 71.992188 30.976562 L 74.5625 30.976562 L 74.5625 33.144531 L 73.824219 33.144531 L 73.75 32.554688 C 73.3125 32.988281 72.644531 33.144531 72.003906 33.144531 C 70.582031 33.136719 69.417969 32.726562 69.421875 31.300781 L 69.421875 31.019531 C 69.417969 29.589844 70.582031 29.179688 72.003906 29.175781 C 73.3125 29.175781 74.394531 29.535156 74.5625 30.699219 L 72.992188 30.699219 C 72.890625 30.5625 72.757812 30.476562 72.589844 30.441406 C 72.398438 30.394531 72.203125 30.371094 72.003906 30.375 C 71.398438 30.382812 70.890625 30.496094 70.898438 31.109375 L 70.898438 31.203125 C 70.886719 31.824219 71.398438 31.933594 72.003906 31.941406 C 72.585938 31.941406 72.957031 31.90625 73.179688 31.621094 L 71.992188 31.621094 Z M 71.992188 30.976562 " fill-opacity="1" fill-rule="nonzero"/></g><g clip-path="url(#97c92528f8)"><path fill="#0a002e" d="M 76.992188 30.667969 L 78.097656 29.28125 L 79.847656 29.28125 L 77.726562 31.824219 L 77.726562 33.148438 L 76.253906 33.148438 L 76.253906 31.824219 L 74.136719 29.28125 L 75.886719 29.28125 Z M 76.992188 30.667969 " fill-opacity="1" fill-rule="nonzero"/></g></svg>